<svg xmlns="http://www.w3.org/2000/svg" xmlns:xlink="http://www.w3.org/1999/xlink" width="1080" zoomAndPan="magnify" viewBox="0 0 810 809.999993" height="1080" preserveAspectRatio="xMidYMid meet" version="1.0"><defs><clipPath id="aa6719f0ef"><path d="M 1 202 L 809 202 L 809 784.433594 L 1 784.433594 Z M 1 202 " clip-rule="nonzero"/></clipPath><clipPath id="8a423d315a"><path d="M 240 25.433594 L 570 25.433594 L 570 228 L 240 228 Z M 240 25.433594 " clip-rule="nonzero"/></clipPath></defs><g clip-path="url(#aa6719f0ef)"><path fill="#ffffff" d="M 745.582031 784.417969 L 64.339844 784.417969 C 62.273438 784.417969 60.214844 784.3125 58.164062 784.109375 C 56.109375 783.90625 54.070312 783.601562 52.046875 783.195312 C 50.023438 782.792969 48.023438 782.289062 46.050781 781.691406 C 44.074219 781.089844 42.132812 780.394531 40.226562 779.605469 C 38.320312 778.8125 36.460938 777.929688 34.640625 776.957031 C 32.820312 775.984375 31.050781 774.925781 29.335938 773.777344 C 27.621094 772.628906 25.964844 771.402344 24.371094 770.09375 C 22.773438 768.785156 21.246094 767.398438 19.789062 765.941406 C 18.328125 764.484375 16.945312 762.957031 15.636719 761.359375 C 14.324219 759.765625 13.097656 758.109375 11.949219 756.394531 C 10.804688 754.679688 9.742188 752.914062 8.769531 751.09375 C 7.792969 749.273438 6.914062 747.414062 6.121094 745.507812 C 5.332031 743.601562 4.632812 741.660156 4.035156 739.6875 C 3.433594 737.714844 2.929688 735.714844 2.527344 733.691406 C 2.121094 731.667969 1.816406 729.628906 1.613281 727.574219 C 1.40625 725.523438 1.304688 723.464844 1.300781 721.402344 L 1.300781 265.710938 C 1.304688 263.648438 1.40625 261.589844 1.613281 259.535156 C 1.816406 257.484375 2.121094 255.445312 2.527344 253.421875 C 2.929688 251.398438 3.433594 249.398438 4.035156 247.425781 C 4.632812 245.453125 5.332031 243.511719 6.121094 241.605469 C 6.914062 239.699219 7.792969 237.835938 8.769531 236.019531 C 9.742188 234.199219 10.804688 232.433594 11.949219 230.71875 C 13.097656 229 14.324219 227.347656 15.636719 225.75 C 16.945312 224.15625 18.328125 222.628906 19.789062 221.171875 C 21.246094 219.710938 22.773438 218.328125 24.371094 217.019531 C 25.964844 215.710938 27.621094 214.480469 29.335938 213.335938 C 31.050781 212.1875 32.820312 211.128906 34.640625 210.15625 C 36.460938 209.183594 38.320312 208.300781 40.226562 207.507812 C 42.132812 206.71875 44.074219 206.023438 46.050781 205.421875 C 48.023438 204.824219 50.023438 204.320312 52.046875 203.917969 C 54.070312 203.511719 56.109375 203.207031 58.164062 203.003906 C 60.214844 202.800781 62.273438 202.695312 64.339844 202.695312 L 745.582031 202.695312 C 747.648438 202.695312 749.707031 202.800781 751.757812 203.003906 C 753.8125 203.207031 755.851562 203.511719 757.875 203.917969 C 759.898438 204.320312 761.898438 204.824219 763.871094 205.421875 C 765.847656 206.023438 767.785156 206.71875 769.695312 207.507812 C 771.597656 208.300781 773.460938 209.183594 775.28125 210.15625 C 777.101562 211.128906 778.871094 212.1875 780.585938 213.335938 C 782.300781 214.480469 783.957031 215.710938 785.550781 217.019531 C 787.148438 218.328125 788.671875 219.710938 790.132812 221.171875 C 791.59375 222.628906 792.976562 224.15625 794.285156 225.753906 C 795.597656 227.347656 796.824219 229 797.972656 230.71875 C 799.117188 232.433594 800.179688 234.199219 801.152344 236.019531 C 802.125 237.835938 803.007812 239.699219 803.800781 241.605469 C 804.589844 243.511719 805.285156 245.453125 805.886719 247.425781 C 806.488281 249.398438 806.992188 251.398438 807.394531 253.421875 C 807.800781 255.445312 808.105469 257.484375 808.308594 259.535156 C 808.511719 261.589844 808.617188 263.648438 808.621094 265.710938 L 808.621094 721.378906 C 808.617188 723.441406 808.515625 725.5 808.3125 727.554688 C 808.105469 729.609375 807.804688 731.648438 807.398438 733.671875 C 806.996094 735.695312 806.492188 737.695312 805.894531 739.667969 C 805.292969 741.644531 804.597656 743.582031 803.808594 745.492188 C 803.015625 747.398438 802.132812 749.261719 801.160156 751.078125 C 800.1875 752.898438 799.125 754.667969 797.980469 756.382812 C 796.832031 758.101562 795.605469 759.753906 794.296875 761.351562 C 792.984375 762.945312 791.601562 764.472656 790.140625 765.933594 C 788.683594 767.394531 787.15625 768.777344 785.558594 770.085938 C 783.964844 771.398438 782.308594 772.625 780.59375 773.773438 C 778.875 774.917969 777.109375 775.980469 775.289062 776.953125 C 773.46875 777.929688 771.605469 778.808594 769.699219 779.601562 C 767.792969 780.390625 765.851562 781.089844 763.875 781.6875 C 761.902344 782.289062 759.902344 782.792969 757.878906 783.195312 C 755.855469 783.601562 753.816406 783.90625 751.761719 784.109375 C 749.707031 784.3125 747.648438 784.417969 745.582031 784.417969 Z M 64.339844 227.746094 C 63.09375 227.746094 61.855469 227.808594 60.617188 227.933594 C 59.378906 228.054688 58.152344 228.238281 56.929688 228.480469 C 55.710938 228.726562 54.507812 229.027344 53.316406 229.390625 C 52.125 229.75 50.957031 230.167969 49.808594 230.644531 C 48.660156 231.121094 47.535156 231.652344 46.441406 232.238281 C 45.34375 232.824219 44.277344 233.464844 43.242188 234.15625 C 42.210938 234.847656 41.210938 235.585938 40.25 236.375 C 39.289062 237.164062 38.367188 237.996094 37.488281 238.875 C 36.609375 239.753906 35.773438 240.675781 34.984375 241.636719 C 34.195312 242.59375 33.453125 243.59375 32.761719 244.625 C 32.070312 245.660156 31.429688 246.722656 30.84375 247.820312 C 30.257812 248.917969 29.722656 250.039062 29.246094 251.1875 C 28.769531 252.335938 28.351562 253.503906 27.988281 254.691406 C 27.625 255.882812 27.320312 257.085938 27.078125 258.304688 C 26.832031 259.523438 26.648438 260.753906 26.523438 261.992188 C 26.402344 263.226562 26.335938 264.46875 26.335938 265.710938 L 26.335938 721.378906 C 26.335938 722.621094 26.398438 723.863281 26.523438 725.101562 C 26.644531 726.339844 26.828125 727.566406 27.074219 728.785156 C 27.316406 730.007812 27.621094 731.210938 27.980469 732.402344 C 28.34375 733.589844 28.765625 734.761719 29.242188 735.910156 C 29.71875 737.058594 30.25 738.183594 30.835938 739.277344 C 31.421875 740.375 32.0625 741.441406 32.753906 742.476562 C 33.445312 743.507812 34.1875 744.507812 34.976562 745.46875 C 35.765625 746.429688 36.601562 747.351562 37.480469 748.230469 C 38.359375 749.109375 39.28125 749.941406 40.242188 750.730469 C 41.203125 751.519531 42.203125 752.261719 43.238281 752.953125 C 44.269531 753.644531 45.335938 754.28125 46.433594 754.871094 C 47.53125 755.457031 48.652344 755.988281 49.804688 756.464844 C 50.953125 756.941406 52.121094 757.359375 53.3125 757.722656 C 54.503906 758.082031 55.707031 758.386719 56.929688 758.628906 C 58.148438 758.875 59.378906 759.058594 60.617188 759.179688 C 61.851562 759.304688 63.09375 759.367188 64.339844 759.367188 L 745.582031 759.367188 C 746.828125 759.367188 748.070312 759.304688 749.304688 759.179688 C 750.542969 759.058594 751.773438 758.875 752.992188 758.628906 C 754.214844 758.386719 755.417969 758.082031 756.609375 757.722656 C 757.800781 757.359375 758.96875 756.941406 760.117188 756.464844 C 761.269531 755.988281 762.390625 755.457031 763.488281 754.871094 C 764.585938 754.28125 765.652344 753.644531 766.683594 752.953125 C 767.71875 752.261719 768.71875 751.519531 769.679688 750.730469 C 770.640625 749.941406 771.5625 749.109375 772.441406 748.230469 C 773.320312 747.351562 774.15625 746.429688 774.945312 745.46875 C 775.734375 744.507812 776.476562 743.507812 777.167969 742.472656 C 777.859375 741.441406 778.496094 740.375 779.085938 739.277344 C 779.671875 738.183594 780.203125 737.058594 780.679688 735.910156 C 781.15625 734.761719 781.578125 733.589844 781.9375 732.402344 C 782.300781 731.210938 782.605469 730.007812 782.847656 728.785156 C 783.09375 727.566406 783.277344 726.339844 783.398438 725.101562 C 783.523438 723.863281 783.585938 722.621094 783.585938 721.378906 L 783.585938 265.710938 C 783.585938 264.46875 783.523438 263.226562 783.398438 261.988281 C 783.277344 260.75 783.09375 259.523438 782.847656 258.304688 C 782.605469 257.082031 782.300781 255.878906 781.941406 254.6875 C 781.578125 253.496094 781.15625 252.328125 780.679688 251.179688 C 780.203125 250.03125 779.671875 248.90625 779.085938 247.8125 C 778.5 246.714844 777.859375 245.648438 777.167969 244.613281 C 776.476562 243.582031 775.734375 242.582031 774.945312 241.621094 C 774.15625 240.660156 773.320312 239.738281 772.441406 238.859375 C 771.5625 237.980469 770.640625 237.148438 769.679688 236.355469 C 768.71875 235.566406 767.71875 234.828125 766.683594 234.136719 C 765.652344 233.445312 764.585938 232.804688 763.488281 232.21875 C 762.390625 231.632812 761.269531 231.101562 760.117188 230.625 C 758.96875 230.148438 757.800781 229.730469 756.609375 229.367188 C 755.417969 229.003906 754.214844 228.703125 752.992188 228.460938 C 751.773438 228.214844 750.542969 228.03125 749.304688 227.910156 C 748.070312 227.785156 746.828125 227.722656 745.582031 227.722656 Z M 64.339844 227.746094 " fill-opacity="1" fill-rule="nonzero"/></g><g clip-path="url(#8a423d315a)"><path fill="#ffffff" d="M 557.375 227.746094 L 252.546875 227.746094 C 251.726562 227.746094 250.914062 227.664062 250.105469 227.503906 C 249.300781 227.34375 248.519531 227.109375 247.757812 226.792969 C 247 226.480469 246.277344 226.09375 245.59375 225.636719 C 244.910156 225.179688 244.277344 224.660156 243.699219 224.082031 C 243.117188 223.5 242.597656 222.867188 242.140625 222.183594 C 241.683594 221.5 241.300781 220.78125 240.984375 220.019531 C 240.671875 219.261719 240.433594 218.480469 240.273438 217.671875 C 240.113281 216.867188 240.03125 216.054688 240.03125 215.230469 L 240.03125 113.113281 C 240.035156 111.679688 240.070312 110.246094 240.140625 108.8125 C 240.214844 107.382812 240.320312 105.953125 240.464844 104.523438 C 240.605469 103.097656 240.78125 101.675781 240.992188 100.257812 C 241.207031 98.835938 241.453125 97.425781 241.734375 96.019531 C 242.015625 94.613281 242.328125 93.214844 242.679688 91.824219 C 243.027344 90.433594 243.414062 89.050781 243.828125 87.679688 C 244.246094 86.304688 244.699219 84.945312 245.183594 83.59375 C 245.667969 82.246094 246.183594 80.90625 246.734375 79.582031 C 247.28125 78.257812 247.863281 76.945312 248.480469 75.652344 C 249.09375 74.355469 249.738281 73.074219 250.414062 71.808594 C 251.089844 70.546875 251.796875 69.296875 252.535156 68.066406 C 253.273438 66.839844 254.042969 65.628906 254.839844 64.433594 C 255.636719 63.242188 256.460938 62.070312 257.316406 60.917969 C 258.171875 59.765625 259.054688 58.636719 259.964844 57.527344 C 260.875 56.417969 261.8125 55.335938 262.773438 54.269531 C 263.738281 53.207031 264.726562 52.171875 265.742188 51.15625 C 266.757812 50.140625 267.792969 49.152344 268.859375 48.191406 C 269.921875 47.226562 271.007812 46.289062 272.113281 45.378906 C 273.222656 44.46875 274.355469 43.585938 275.507812 42.734375 C 276.65625 41.878906 277.832031 41.054688 279.023438 40.253906 C 280.214844 39.457031 281.425781 38.691406 282.65625 37.953125 C 283.886719 37.214844 285.132812 36.507812 286.398438 35.832031 C 287.664062 35.15625 288.945312 34.507812 290.242188 33.894531 C 291.539062 33.28125 292.847656 32.699219 294.171875 32.152344 C 295.496094 31.601562 296.835938 31.085938 298.1875 30.601562 C 299.535156 30.117188 300.898438 29.664062 302.269531 29.246094 C 303.640625 28.832031 305.023438 28.445312 306.414062 28.097656 C 307.804688 27.746094 309.207031 27.433594 310.613281 27.152344 C 312.019531 26.871094 313.429688 26.625 314.851562 26.414062 C 316.269531 26.199219 317.691406 26.023438 319.121094 25.882812 C 320.546875 25.738281 321.976562 25.632812 323.410156 25.5625 C 324.84375 25.488281 326.277344 25.453125 327.710938 25.449219 L 482.210938 25.449219 C 483.644531 25.453125 485.078125 25.488281 486.511719 25.5625 C 487.945312 25.632812 489.375 25.738281 490.800781 25.882812 C 492.230469 26.023438 493.652344 26.199219 495.070312 26.414062 C 496.492188 26.625 497.902344 26.871094 499.308594 27.152344 C 500.714844 27.433594 502.113281 27.746094 503.507812 28.097656 C 504.898438 28.445312 506.28125 28.832031 507.652344 29.246094 C 509.023438 29.664062 510.386719 30.117188 511.734375 30.601562 C 513.085938 31.085938 514.421875 31.601562 515.75 32.152344 C 517.074219 32.699219 518.382812 33.28125 519.679688 33.894531 C 520.976562 34.507812 522.257812 35.15625 523.523438 35.832031 C 524.789062 36.507812 526.035156 37.214844 527.265625 37.953125 C 528.496094 38.691406 529.707031 39.457031 530.898438 40.253906 C 532.089844 41.054688 533.261719 41.878906 534.414062 42.734375 C 535.566406 43.585938 536.699219 44.46875 537.808594 45.378906 C 538.914062 46.289062 540 47.226562 541.0625 48.191406 C 542.125 49.152344 543.164062 50.140625 544.179688 51.15625 C 545.195312 52.171875 546.183594 53.207031 547.144531 54.269531 C 548.109375 55.335938 549.046875 56.417969 549.957031 57.527344 C 550.867188 58.636719 551.75 59.765625 552.605469 60.917969 C 553.457031 62.070312 554.285156 63.242188 555.082031 64.433594 C 555.878906 65.628906 556.648438 66.839844 557.386719 68.066406 C 558.121094 69.296875 558.832031 70.546875 559.507812 71.808594 C 560.183594 73.074219 560.828125 74.355469 561.441406 75.652344 C 562.058594 76.945312 562.640625 78.257812 563.1875 79.582031 C 563.738281 80.90625 564.253906 82.246094 564.738281 83.59375 C 565.222656 84.945312 565.675781 86.304688 566.089844 87.679688 C 566.507812 89.050781 566.890625 90.433594 567.242188 91.824219 C 567.59375 93.214844 567.90625 94.613281 568.1875 96.019531 C 568.46875 97.425781 568.714844 98.835938 568.925781 100.257812 C 569.140625 101.675781 569.316406 103.097656 569.457031 104.523438 C 569.601562 105.953125 569.707031 107.382812 569.78125 108.8125 C 569.851562 110.246094 569.886719 111.679688 569.890625 113.113281 L 569.890625 215.230469 C 569.890625 216.054688 569.808594 216.867188 569.648438 217.671875 C 569.488281 218.480469 569.25 219.261719 568.9375 220.019531 C 568.621094 220.78125 568.238281 221.5 567.78125 222.183594 C 567.324219 222.867188 566.804688 223.5 566.222656 224.082031 C 565.644531 224.660156 565.011719 225.179688 564.328125 225.636719 C 563.644531 226.09375 562.921875 226.480469 562.164062 226.792969 C 561.402344 227.109375 560.621094 227.34375 559.816406 227.503906 C 559.007812 227.664062 558.195312 227.746094 557.375 227.746094 Z M 265.066406 202.71875 L 544.855469 202.71875 L 544.855469 113.113281 C 544.855469 111.0625 544.75 109.015625 544.546875 106.976562 C 544.34375 104.9375 544.042969 102.910156 543.640625 100.898438 C 543.238281 98.886719 542.738281 96.902344 542.144531 94.941406 C 541.546875 92.976562 540.855469 91.050781 540.070312 89.15625 C 539.285156 87.261719 538.40625 85.410156 537.4375 83.601562 C 536.472656 81.792969 535.417969 80.039062 534.277344 78.332031 C 533.136719 76.628906 531.917969 74.984375 530.617188 73.398438 C 529.3125 71.8125 527.9375 70.296875 526.488281 68.84375 C 525.039062 67.394531 523.519531 66.019531 521.933594 64.71875 C 520.347656 63.417969 518.703125 62.195312 517 61.058594 C 515.292969 59.917969 513.535156 58.863281 511.726562 57.894531 C 509.917969 56.929688 508.066406 56.050781 506.171875 55.265625 C 504.277344 54.480469 502.351562 53.789062 500.386719 53.191406 C 498.425781 52.59375 496.4375 52.097656 494.429688 51.695312 C 492.417969 51.292969 490.390625 50.992188 488.347656 50.789062 C 486.308594 50.585938 484.261719 50.480469 482.210938 50.480469 L 327.710938 50.480469 C 325.660156 50.480469 323.613281 50.585938 321.570312 50.789062 C 319.53125 50.992188 317.503906 51.292969 315.492188 51.695312 C 313.480469 52.097656 311.496094 52.59375 309.53125 53.191406 C 307.570312 53.789062 305.640625 54.480469 303.746094 55.265625 C 301.851562 56.050781 300 56.929688 298.191406 57.894531 C 296.386719 58.863281 294.628906 59.917969 292.921875 61.058594 C 291.21875 62.195312 289.574219 63.417969 287.988281 64.71875 C 286.402344 66.019531 284.882812 67.394531 283.433594 68.84375 C 281.984375 70.296875 280.609375 71.8125 279.304688 73.398438 C 278.003906 74.984375 276.785156 76.628906 275.644531 78.332031 C 274.503906 80.039062 273.449219 81.792969 272.484375 83.601562 C 271.515625 85.410156 270.636719 87.261719 269.851562 89.15625 C 269.066406 91.050781 268.375 92.976562 267.777344 94.941406 C 267.179688 96.902344 266.683594 98.886719 266.28125 100.898438 C 265.878906 102.910156 265.574219 104.9375 265.371094 106.976562 C 265.167969 109.015625 265.066406 111.0625 265.066406 113.113281 Z M 265.066406 202.71875 " fill-opacity="1" fill-rule="nonzero"/></g><path fill="#ffffff" d="M 505.023438 227.746094 L 304.898438 227.746094 C 304.078125 227.746094 303.261719 227.664062 302.457031 227.503906 C 301.652344 227.34375 300.867188 227.109375 300.109375 226.792969 C 299.347656 226.480469 298.628906 226.09375 297.945312 225.636719 C 297.261719 225.179688 296.628906 224.660156 296.046875 224.082031 C 295.46875 223.5 294.949219 222.867188 294.492188 222.183594 C 294.035156 221.5 293.648438 220.78125 293.335938 220.019531 C 293.019531 219.261719 292.78125 218.480469 292.621094 217.671875 C 292.460938 216.867188 292.382812 216.054688 292.382812 215.230469 L 292.382812 139.136719 C 292.382812 137.128906 292.484375 135.125 292.683594 133.125 C 292.882812 131.125 293.179688 129.140625 293.570312 127.171875 C 293.964844 125.203125 294.453125 123.257812 295.039062 121.335938 C 295.621094 119.414062 296.300781 117.527344 297.070312 115.671875 C 297.839844 113.816406 298.699219 112.003906 299.644531 110.230469 C 300.59375 108.460938 301.625 106.738281 302.742188 105.070312 C 303.859375 103.398438 305.054688 101.789062 306.328125 100.238281 C 307.601562 98.683594 308.949219 97.199219 310.371094 95.777344 C 311.792969 94.355469 313.277344 93.011719 314.832031 91.734375 C 316.382812 90.460938 317.996094 89.265625 319.664062 88.148438 C 321.335938 87.035156 323.054688 86 324.828125 85.054688 C 326.597656 84.105469 328.410156 83.246094 330.265625 82.476562 C 332.121094 81.707031 334.011719 81.03125 335.933594 80.449219 C 337.855469 79.863281 339.800781 79.375 341.773438 78.980469 C 343.742188 78.585938 345.726562 78.292969 347.726562 78.09375 C 349.722656 77.894531 351.726562 77.792969 353.738281 77.792969 L 456.214844 77.792969 C 458.226562 77.792969 460.230469 77.894531 462.226562 78.09375 C 464.226562 78.292969 466.210938 78.585938 468.179688 78.980469 C 470.152344 79.375 472.097656 79.863281 474.019531 80.449219 C 475.941406 81.03125 477.832031 81.707031 479.6875 82.476562 C 481.542969 83.246094 483.355469 84.105469 485.125 85.054688 C 486.898438 86 488.617188 87.035156 490.289062 88.148438 C 491.957031 89.265625 493.570312 90.460938 495.121094 91.734375 C 496.675781 93.011719 498.160156 94.355469 499.582031 95.777344 C 501.003906 97.199219 502.351562 98.683594 503.625 100.238281 C 504.898438 101.789062 506.09375 103.398438 507.210938 105.070312 C 508.328125 106.738281 509.359375 108.460938 510.308594 110.230469 C 511.253906 112.003906 512.113281 113.816406 512.882812 115.671875 C 513.652344 117.527344 514.332031 119.414062 514.914062 121.335938 C 515.5 123.257812 515.988281 125.203125 516.382812 127.171875 C 516.773438 129.140625 517.070312 131.125 517.269531 133.125 C 517.46875 135.125 517.570312 137.128906 517.570312 139.136719 L 517.570312 215.230469 C 517.570312 216.054688 517.492188 216.871094 517.328125 217.675781 C 517.167969 218.484375 516.929688 219.269531 516.613281 220.027344 C 516.300781 220.789062 515.914062 221.511719 515.453125 222.195312 C 514.996094 222.878906 514.476562 223.511719 513.894531 224.09375 C 513.3125 224.671875 512.675781 225.191406 511.992188 225.648438 C 511.304688 226.105469 510.582031 226.488281 509.824219 226.800781 C 509.0625 227.117188 508.277344 227.351562 507.46875 227.511719 C 506.660156 227.667969 505.847656 227.75 505.023438 227.746094 Z M 317.414062 202.71875 L 492.507812 202.71875 L 492.507812 139.136719 C 492.503906 137.945312 492.445312 136.761719 492.328125 135.578125 C 492.210938 134.394531 492.035156 133.21875 491.800781 132.054688 C 491.570312 130.886719 491.28125 129.738281 490.933594 128.597656 C 490.585938 127.460938 490.1875 126.34375 489.730469 125.246094 C 489.273438 124.148438 488.765625 123.074219 488.207031 122.023438 C 487.644531 120.976562 487.035156 119.957031 486.371094 118.96875 C 485.710938 117.980469 485.003906 117.027344 484.25 116.109375 C 483.496094 115.191406 482.699219 114.308594 481.855469 113.46875 C 481.015625 112.628906 480.136719 111.832031 479.214844 111.074219 C 478.296875 110.320312 477.34375 109.613281 476.355469 108.953125 C 475.367188 108.292969 474.347656 107.679688 473.300781 107.121094 C 472.25 106.558594 471.175781 106.050781 470.078125 105.59375 C 468.980469 105.140625 467.863281 104.738281 466.722656 104.394531 C 465.585938 104.046875 464.433594 103.757812 463.269531 103.523438 C 462.101562 103.292969 460.925781 103.117188 459.742188 103 C 458.558594 102.882812 457.375 102.820312 456.183594 102.820312 L 353.707031 102.820312 C 352.515625 102.820312 351.328125 102.882812 350.148438 103 C 348.964844 103.117188 347.789062 103.292969 346.621094 103.523438 C 345.457031 103.757812 344.304688 104.046875 343.167969 104.394531 C 342.027344 104.738281 340.910156 105.140625 339.8125 105.59375 C 338.714844 106.050781 337.640625 106.558594 336.589844 107.121094 C 335.542969 107.679688 334.523438 108.292969 333.535156 108.953125 C 332.546875 109.613281 331.59375 110.320312 330.675781 111.074219 C 329.753906 111.832031 328.875 112.628906 328.035156 113.46875 C 327.191406 114.308594 326.394531 115.191406 325.640625 116.109375 C 324.886719 117.027344 324.179688 117.980469 323.515625 118.96875 C 322.855469 119.957031 322.246094 120.976562 321.683594 122.023438 C 321.125 123.074219 320.613281 124.148438 320.160156 125.246094 C 319.703125 126.34375 319.304688 127.460938 318.957031 128.597656 C 318.609375 129.738281 318.320312 130.886719 318.089844 132.054688 C 317.855469 133.21875 317.679688 134.394531 317.5625 135.578125 C 317.445312 136.761719 317.386719 137.945312 317.382812 139.136719 Z M 317.414062 202.71875 " fill-opacity="1" fill-rule="nonzero"/><path fill="#ffffff" d="M 498.46875 486.230469 C 497.6875 486.230469 496.914062 486.15625 496.144531 486.011719 C 495.378906 485.867188 494.628906 485.648438 493.902344 485.363281 C 493.175781 485.078125 492.484375 484.730469 491.820312 484.3125 C 491.160156 483.898438 490.542969 483.425781 489.972656 482.894531 C 489.398438 482.363281 488.878906 481.78125 488.414062 481.15625 C 487.953125 480.527344 487.550781 479.863281 487.210938 479.160156 C 486.871094 478.457031 486.597656 477.726562 486.394531 476.972656 C 486.191406 476.21875 486.0625 475.453125 486 474.675781 C 485.941406 473.894531 485.957031 473.117188 486.039062 472.34375 C 486.125 471.566406 486.285156 470.804688 486.511719 470.058594 C 486.742188 469.3125 487.035156 468.59375 487.398438 467.902344 C 487.761719 467.210938 488.1875 466.558594 488.671875 465.945312 C 489.15625 465.335938 489.691406 464.773438 490.285156 464.261719 C 490.875 463.75 491.507812 463.296875 492.179688 462.902344 C 492.855469 462.511719 493.5625 462.183594 494.296875 461.921875 C 495.03125 461.660156 495.785156 461.472656 496.558594 461.351562 C 509.921875 459.273438 523.199219 456.742188 536.386719 453.757812 C 549.578125 450.769531 562.648438 447.335938 575.605469 443.453125 C 588.558594 439.574219 601.363281 435.25 614.023438 430.492188 C 626.679688 425.734375 639.160156 420.546875 651.464844 414.929688 C 663.765625 409.316406 675.863281 403.285156 687.75 396.839844 C 699.640625 390.398438 711.296875 383.554688 722.714844 376.3125 C 734.136719 369.070312 745.292969 361.445312 756.191406 353.4375 C 767.089844 345.429688 777.699219 337.058594 788.023438 328.324219 C 788.652344 327.808594 789.324219 327.363281 790.042969 326.980469 C 790.757812 326.597656 791.503906 326.289062 792.28125 326.050781 C 793.058594 325.816406 793.851562 325.65625 794.660156 325.574219 C 795.46875 325.492188 796.277344 325.488281 797.085938 325.5625 C 797.894531 325.636719 798.6875 325.789062 799.46875 326.019531 C 800.246094 326.25 800.996094 326.550781 801.714844 326.925781 C 802.4375 327.304688 803.113281 327.746094 803.75 328.25 C 804.382812 328.757812 804.960938 329.324219 805.488281 329.941406 C 806.011719 330.5625 806.472656 331.226562 806.867188 331.9375 C 807.261719 332.648438 807.582031 333.386719 807.835938 334.160156 C 808.085938 334.933594 808.257812 335.722656 808.355469 336.527344 C 808.453125 337.335938 808.472656 338.144531 808.410156 338.953125 C 808.351562 339.761719 808.214844 340.558594 807.996094 341.34375 C 807.78125 342.125 807.492188 342.878906 807.132812 343.609375 C 806.769531 344.335938 806.339844 345.019531 805.84375 345.664062 C 805.347656 346.304688 804.792969 346.894531 804.183594 347.429688 C 793.425781 356.535156 782.367188 365.261719 771.007812 373.605469 C 759.648438 381.953125 748.019531 389.898438 736.117188 397.449219 C 724.214844 405 712.066406 412.132812 699.675781 418.847656 C 687.285156 425.5625 674.675781 431.847656 661.855469 437.699219 C 649.03125 443.554688 636.023438 448.960938 622.832031 453.921875 C 609.636719 458.882812 596.289062 463.386719 582.789062 467.429688 C 569.285156 471.476562 555.660156 475.058594 541.914062 478.167969 C 528.164062 481.28125 514.328125 483.917969 500.398438 486.082031 C 499.757812 486.183594 499.113281 486.230469 498.46875 486.230469 Z M 498.46875 486.230469 " fill-opacity="1" fill-rule="nonzero"/><path fill="#ffffff" d="M 311.453125 486.230469 C 310.804688 486.230469 310.15625 486.183594 309.515625 486.082031 C 295.585938 483.917969 281.75 481.28125 268 478.167969 C 254.253906 475.054688 240.628906 471.476562 227.128906 467.429688 C 213.625 463.382812 200.28125 458.882812 187.085938 453.921875 C 173.894531 448.960938 160.886719 443.550781 148.0625 437.699219 C 135.242188 431.847656 122.632812 425.5625 110.242188 418.847656 C 97.851562 412.128906 85.703125 404.996094 73.800781 397.449219 C 61.898438 389.898438 50.269531 381.953125 38.914062 373.605469 C 27.554688 365.261719 16.496094 356.535156 5.738281 347.429688 C 5.128906 346.894531 4.574219 346.304688 4.078125 345.664062 C 3.582031 345.019531 3.152344 344.335938 2.789062 343.609375 C 2.429688 342.878906 2.140625 342.125 1.925781 341.34375 C 1.707031 340.558594 1.570312 339.761719 1.511719 338.953125 C 1.449219 338.144531 1.46875 337.335938 1.566406 336.527344 C 1.664062 335.722656 1.835938 334.933594 2.085938 334.160156 C 2.339844 333.386719 2.660156 332.648438 3.054688 331.9375 C 3.453125 331.226562 3.910156 330.5625 4.433594 329.941406 C 4.960938 329.324219 5.539062 328.757812 6.171875 328.253906 C 6.808594 327.746094 7.484375 327.304688 8.207031 326.929688 C 8.925781 326.550781 9.675781 326.25 10.453125 326.019531 C 11.234375 325.789062 12.027344 325.636719 12.835938 325.5625 C 13.644531 325.488281 14.453125 325.492188 15.261719 325.574219 C 16.070312 325.65625 16.863281 325.816406 17.640625 326.050781 C 18.417969 326.289062 19.164062 326.597656 19.878906 326.980469 C 20.597656 327.363281 21.269531 327.808594 21.898438 328.324219 C 32.222656 337.058594 42.832031 345.429688 53.730469 353.4375 C 64.628906 361.445312 75.785156 369.070312 87.207031 376.3125 C 98.625 383.554688 110.28125 390.398438 122.171875 396.839844 C 134.058594 403.285156 146.15625 409.316406 158.457031 414.929688 C 170.761719 420.546875 183.242188 425.734375 195.898438 430.492188 C 208.558594 435.25 221.363281 439.574219 234.316406 443.453125 C 247.273438 447.335938 260.34375 450.769531 273.535156 453.757812 C 286.722656 456.742188 300 459.273438 313.363281 461.351562 C 314.136719 461.472656 314.886719 461.660156 315.625 461.921875 C 316.359375 462.183594 317.066406 462.511719 317.742188 462.902344 C 318.414062 463.296875 319.046875 463.75 319.636719 464.261719 C 320.226562 464.773438 320.765625 465.332031 321.25 465.945312 C 321.734375 466.558594 322.160156 467.210938 322.523438 467.902344 C 322.886719 468.59375 323.179688 469.3125 323.410156 470.058594 C 323.636719 470.804688 323.796875 471.566406 323.878906 472.34375 C 323.964844 473.117188 323.980469 473.894531 323.917969 474.675781 C 323.859375 475.453125 323.730469 476.21875 323.527344 476.972656 C 323.324219 477.726562 323.050781 478.457031 322.710938 479.160156 C 322.371094 479.863281 321.96875 480.527344 321.503906 481.15625 C 321.042969 481.78125 320.523438 482.363281 319.949219 482.894531 C 319.378906 483.425781 318.761719 483.898438 318.101562 484.3125 C 317.4375 484.726562 316.746094 485.078125 316.019531 485.363281 C 315.289062 485.648438 314.542969 485.867188 313.777344 486.011719 C 313.007812 486.15625 312.234375 486.230469 311.453125 486.230469 Z M 311.453125 486.230469 " fill-opacity="1" fill-rule="nonzero"/><path fill="#ffffff" d="M 498.484375 555.34375 L 311.4375 555.34375 C 310.617188 555.34375 309.804688 555.261719 308.996094 555.101562 C 308.191406 554.941406 307.40625 554.703125 306.648438 554.390625 C 305.890625 554.074219 305.167969 553.691406 304.484375 553.234375 C 303.800781 552.777344 303.167969 552.257812 302.589844 551.675781 C 302.007812 551.097656 301.488281 550.464844 301.03125 549.78125 C 300.574219 549.097656 300.1875 548.375 299.875 547.617188 C 299.558594 546.859375 299.324219 546.074219 299.164062 545.269531 C 299.003906 544.464844 298.921875 543.648438 298.921875 542.828125 L 298.921875 419.011719 C 298.921875 418.191406 299.003906 417.378906 299.164062 416.570312 C 299.324219 415.765625 299.558594 414.984375 299.875 414.222656 C 300.191406 413.464844 300.574219 412.742188 301.03125 412.0625 C 301.488281 411.378906 302.007812 410.746094 302.589844 410.164062 C 303.167969 409.582031 303.800781 409.066406 304.484375 408.609375 C 305.167969 408.152344 305.890625 407.765625 306.648438 407.453125 C 307.40625 407.136719 308.191406 406.898438 308.996094 406.738281 C 309.804688 406.578125 310.617188 406.5 311.4375 406.5 L 498.484375 406.5 C 499.304688 406.5 500.117188 406.578125 500.925781 406.738281 C 501.730469 406.898438 502.511719 407.136719 503.273438 407.453125 C 504.03125 407.765625 504.753906 408.152344 505.4375 408.609375 C 506.121094 409.066406 506.753906 409.582031 507.332031 410.164062 C 507.914062 410.746094 508.433594 411.378906 508.890625 412.0625 C 509.347656 412.742188 509.730469 413.464844 510.046875 414.222656 C 510.359375 414.984375 510.597656 415.765625 510.757812 416.570312 C 510.917969 417.378906 511 418.191406 511 419.011719 L 511 542.828125 C 511 543.648438 510.917969 544.464844 510.757812 545.269531 C 510.597656 546.074219 510.359375 546.859375 510.046875 547.617188 C 509.730469 548.375 509.347656 549.097656 508.890625 549.78125 C 508.433594 550.464844 507.914062 551.097656 507.332031 551.675781 C 506.753906 552.257812 506.121094 552.777344 505.4375 553.234375 C 504.753906 553.691406 504.03125 554.074219 503.273438 554.390625 C 502.511719 554.703125 501.730469 554.941406 500.925781 555.101562 C 500.117188 555.261719 499.304688 555.34375 498.484375 555.34375 Z M 323.957031 530.3125 L 485.964844 530.3125 L 485.964844 431.527344 L 323.957031 431.527344 Z M 323.957031 530.3125 " fill-opacity="1" fill-rule="nonzero"/><path fill="#ffffff" d="M 404.960938 506.082031 C 404.140625 506.082031 403.324219 506.003906 402.519531 505.84375 C 401.710938 505.683594 400.929688 505.445312 400.171875 505.128906 C 399.410156 504.816406 398.691406 504.429688 398.007812 503.972656 C 397.324219 503.515625 396.691406 503 396.109375 502.417969 C 395.527344 501.835938 395.011719 501.203125 394.554688 500.519531 C 394.097656 499.835938 393.710938 499.117188 393.398438 498.355469 C 393.082031 497.597656 392.84375 496.816406 392.683594 496.007812 C 392.523438 495.203125 392.445312 494.390625 392.445312 493.566406 L 392.445312 419.011719 C 392.445312 418.191406 392.523438 417.378906 392.683594 416.570312 C 392.84375 415.765625 393.082031 414.984375 393.398438 414.222656 C 393.710938 413.464844 394.097656 412.742188 394.554688 412.0625 C 395.011719 411.378906 395.527344 410.746094 396.109375 410.164062 C 396.691406 409.582031 397.324219 409.066406 398.007812 408.609375 C 398.691406 408.152344 399.410156 407.765625 400.171875 407.453125 C 400.929688 407.136719 401.710938 406.898438 402.519531 406.738281 C 403.324219 406.578125 404.140625 406.5 404.960938 406.5 C 405.78125 406.5 406.597656 406.578125 407.402344 406.738281 C 408.207031 406.898438 408.992188 407.136719 409.75 407.453125 C 410.511719 407.765625 411.230469 408.152344 411.914062 408.609375 C 412.597656 409.066406 413.230469 409.582031 413.8125 410.164062 C 414.390625 410.746094 414.910156 411.378906 415.367188 412.0625 C 415.824219 412.742188 416.210938 413.464844 416.523438 414.222656 C 416.839844 414.984375 417.078125 415.765625 417.238281 416.570312 C 417.398438 417.378906 417.476562 418.191406 417.476562 419.011719 L 417.476562 493.535156 C 417.480469 494.359375 417.402344 495.175781 417.242188 495.984375 C 417.082031 496.789062 416.847656 497.574219 416.535156 498.335938 C 416.21875 499.097656 415.835938 499.820312 415.378906 500.503906 C 414.921875 501.191406 414.402344 501.824219 413.824219 502.40625 C 413.242188 502.988281 412.609375 503.507812 411.925781 503.96875 C 411.242188 504.425781 410.519531 504.8125 409.757812 505.128906 C 408.996094 505.441406 408.214844 505.679688 407.40625 505.839844 C 406.597656 506.003906 405.785156 506.082031 404.960938 506.082031 Z M 404.960938 506.082031 " fill-opacity="1" fill-rule="nonzero"/></svg>