<svg xmlns="http://www.w3.org/2000/svg" xmlns:xlink="http://www.w3.org/1999/xlink" width="1080" zoomAndPan="magnify" viewBox="0 0 810 809.999993" height="1080" preserveAspectRatio="xMidYMid meet" version="1.0"><defs><clipPath id="d97534b81b"><path d="M 27.335938 72 L 782.585938 72 L 782.585938 809.84375 L 27.335938 809.84375 Z M 27.335938 72 " clip-rule="nonzero"/></clipPath></defs><path fill="#ffffff" d="M 227.71875 480.820312 C 225.710938 480.820312 223.691406 480.136719 222.035156 478.742188 C 212.773438 470.914062 204.59375 461.945312 197.71875 452.082031 C 194.933594 448.089844 195.914062 442.597656 199.90625 439.8125 C 203.910156 437.03125 209.398438 438.019531 212.175781 442.003906 C 218.175781 450.613281 225.316406 458.4375 233.414062 465.273438 C 237.132812 468.414062 237.59375 473.972656 234.457031 477.695312 C 232.707031 479.761719 230.222656 480.820312 227.71875 480.820312 " fill-opacity="1" fill-rule="nonzero"/><path fill="#ffffff" d="M 182.964844 194.476562 C 139.5 194.476562 104.269531 159.238281 104.269531 115.773438 C 104.269531 72.304688 139.5 37.066406 182.964844 37.066406 C 226.429688 37.066406 261.664062 72.304688 261.664062 115.773438 C 261.664062 159.238281 226.429688 194.476562 182.964844 194.476562 Z M 182.964844 0.15625 C 119.488281 0.15625 68.035156 51.617188 68.035156 115.09375 C 68.035156 178.578125 182.964844 357.390625 182.964844 357.390625 C 182.964844 357.390625 297.890625 178.578125 297.890625 115.09375 C 297.890625 51.617188 246.4375 0.15625 182.964844 0.15625 " fill-opacity="1" fill-rule="nonzero"/><g clip-path="url(#d97534b81b)"><path fill="#ffffff" d="M 753.808594 212.402344 L 568.707031 72.203125 L 404.980469 196.210938 L 312.039062 125.816406 C 311.089844 132.945312 309.296875 140.835938 306.804688 149.316406 L 391.761719 213.667969 L 391.761719 433.996094 C 399.007812 424.144531 406.332031 413.574219 413.839844 402.054688 C 415.050781 400.203125 416.566406 398.691406 418.195312 397.363281 L 418.195312 213.667969 L 555.726562 109.496094 L 560.6875 311.503906 C 569.769531 316.820312 578.75 322.878906 587.578125 329.652344 L 582.175781 109.871094 L 732.429688 223.679688 L 758.496094 764.101562 L 595.210938 640.421875 L 588.941406 385.195312 C 580.097656 376.394531 571.078125 368.476562 561.914062 361.507812 L 568.753906 640.050781 L 418.195312 754.09375 L 418.195312 467.625 C 411.964844 475.757812 405.738281 483.558594 399.492188 490.796875 C 397.3125 493.320312 394.644531 495.136719 391.761719 496.332031 L 391.761719 754.09375 L 241.203125 640.050781 L 244.449219 507.808594 C 239.757812 507.800781 235.042969 506.183594 231.171875 502.878906 C 226.789062 499.128906 222.582031 495.195312 218.414062 491.226562 L 214.75 640.421875 L 51.464844 764.101562 L 77.527344 223.679688 L 86.347656 217 C 83.066406 210.15625 79.925781 203.351562 76.964844 196.636719 L 56.152344 212.402344 L 27.335938 809.84375 L 228.222656 657.683594 L 404.980469 791.570312 L 581.738281 657.683594 L 782.625 809.84375 Z M 250.203125 273.6875 C 240.515625 291.234375 230.972656 307.671875 222.578125 321.730469 L 219.878906 431.632812 C 227.800781 441.585938 236.417969 450.992188 245.628906 459.828125 L 250.203125 273.6875 " fill-opacity="1" fill-rule="nonzero"/></g><path fill="#ffffff" d="M 677.679688 561.308594 C 673.882812 561.308594 670.375 558.828125 669.238281 555.003906 L 664.261719 538.070312 C 662.894531 533.394531 665.570312 528.5 670.242188 527.136719 C 674.90625 525.730469 679.804688 528.4375 681.175781 533.113281 L 686.128906 549.976562 C 687.515625 554.636719 684.859375 559.546875 680.199219 560.9375 C 679.359375 561.183594 678.511719 561.308594 677.679688 561.308594 " fill-opacity="1" fill-rule="nonzero"/><path fill="#ffffff" d="M 491.820312 344.847656 C 488.675781 344.847656 485.632812 343.164062 484.042969 340.195312 C 481.75 335.90625 483.363281 330.566406 487.648438 328.265625 C 496.710938 323.40625 506.667969 320.574219 517.246094 319.84375 C 519.472656 319.6875 521.660156 319.613281 523.820312 319.613281 C 528.691406 319.613281 532.890625 323.5625 532.890625 328.429688 C 532.890625 333.296875 529.203125 337.242188 524.339844 337.242188 C 524.265625 337.242188 523.675781 337.238281 523.601562 337.234375 C 522.058594 337.238281 520.273438 337.296875 518.460938 337.425781 C 510.28125 337.992188 502.925781 340.082031 495.972656 343.804688 C 494.648438 344.511719 493.222656 344.847656 491.820312 344.847656 Z M 591.164062 369.148438 C 588.847656 369.148438 586.539062 368.234375 584.808594 366.4375 C 576.96875 358.28125 568.753906 351.75 560.390625 347.046875 C 556.148438 344.65625 554.648438 339.285156 557.03125 335.042969 C 559.417969 330.789062 564.789062 329.289062 569.035156 331.6875 C 578.902344 337.234375 588.484375 344.820312 597.519531 354.222656 C 600.886719 357.738281 600.78125 363.3125 597.265625 366.6875 C 595.558594 368.328125 593.363281 369.148438 591.164062 369.148438 Z M 442.664062 401.878906 C 441.132812 401.878906 439.582031 401.480469 438.171875 400.640625 C 433.988281 398.160156 432.613281 392.746094 435.097656 388.5625 C 440.851562 378.867188 447.125 368.613281 453.996094 359.347656 C 456.90625 355.441406 462.421875 354.621094 466.324219 357.515625 C 470.234375 360.414062 471.054688 365.933594 468.15625 369.847656 C 461.757812 378.476562 455.765625 388.269531 450.25 397.5625 C 448.601562 400.335938 445.671875 401.878906 442.664062 401.878906 Z M 632.710938 432.75 C 629.421875 432.75 626.261719 430.902344 624.753906 427.730469 C 619.71875 417.167969 614.460938 407.394531 609.132812 398.6875 C 606.597656 394.535156 607.898438 389.113281 612.050781 386.570312 C 616.199219 384.027344 621.628906 385.328125 624.167969 389.488281 C 629.8125 398.714844 635.363281 409.03125 640.667969 420.148438 C 642.757812 424.542969 640.890625 429.800781 636.5 431.898438 C 635.277344 432.476562 633.988281 432.75 632.710938 432.75 Z M 400.558594 465.355469 C 398.519531 465.355469 396.46875 464.648438 394.800781 463.210938 C 391.121094 460.035156 390.714844 454.460938 393.894531 450.78125 C 400.289062 443.375 406.652344 434.78125 413.34375 424.511719 C 416.007812 420.4375 421.460938 419.277344 425.535156 421.9375 C 429.617188 424.597656 430.765625 430.054688 428.113281 434.132812 C 420.988281 445.074219 414.15625 454.285156 407.234375 462.300781 C 405.492188 464.320312 403.035156 465.355469 400.558594 465.355469 Z M 227.71875 480.820312 C 225.710938 480.820312 223.691406 480.136719 222.035156 478.742188 C 212.773438 470.914062 204.59375 461.945312 197.71875 452.082031 C 194.933594 448.089844 195.914062 442.597656 199.90625 439.8125 C 203.910156 437.03125 209.398438 438.019531 212.175781 442.003906 C 218.175781 450.613281 225.316406 458.4375 233.414062 465.273438 C 237.132812 468.414062 237.59375 473.972656 234.457031 477.695312 C 232.707031 479.761719 230.222656 480.820312 227.71875 480.820312 Z M 660.320312 503.855469 C 656.601562 503.855469 653.152344 501.484375 651.9375 497.761719 C 648.230469 486.351562 644.625 475.992188 640.914062 466.097656 C 639.207031 461.542969 641.515625 456.460938 646.074219 454.75 C 650.632812 453.066406 655.707031 455.351562 657.417969 459.910156 C 661.21875 470.054688 664.914062 480.652344 668.703125 492.316406 C 670.203125 496.945312 667.675781 501.914062 663.042969 503.421875 C 662.140625 503.714844 661.21875 503.855469 660.320312 503.855469 Z M 338.550781 507.835938 C 334.722656 507.835938 331.199219 505.324219 330.085938 501.460938 C 328.742188 496.789062 331.433594 491.902344 336.109375 490.550781 C 339.496094 489.574219 342.828125 488.382812 346.003906 487.003906 C 352.324219 484.269531 358.449219 480.964844 364.214844 477.199219 C 368.289062 474.53125 373.75 475.675781 376.414062 479.746094 C 379.078125 483.828125 377.9375 489.285156 373.867188 491.949219 C 367.265625 496.265625 360.246094 500.042969 353.003906 503.183594 C 349.144531 504.855469 345.105469 506.300781 340.996094 507.488281 C 340.183594 507.71875 339.359375 507.835938 338.550781 507.835938 Z M 296.597656 510.976562 C 296.257812 510.976562 295.914062 510.960938 295.566406 510.917969 C 283.734375 509.546875 271.957031 506.527344 260.5625 501.941406 C 256.046875 500.125 253.859375 494.992188 255.675781 490.476562 C 257.488281 485.964844 262.621094 483.757812 267.140625 485.589844 C 277.078125 489.585938 287.324219 492.21875 297.597656 493.410156 C 302.4375 493.96875 305.898438 498.347656 305.332031 503.183594 C 304.8125 507.675781 301.003906 510.976562 296.597656 510.976562 " fill-opacity="1" fill-rule="nonzero"/><path fill="#ffffff" d="M 186.683594 417.246094 C 182.847656 417.246094 179.320312 414.71875 178.214844 410.835938 C 176.523438 404.910156 175.191406 398.742188 174.25 392.511719 C 173.523438 387.695312 176.835938 383.207031 181.648438 382.480469 C 186.476562 381.746094 190.953125 385.066406 191.675781 389.878906 C 192.507812 395.371094 193.679688 400.792969 195.164062 406.011719 C 196.5 410.6875 193.785156 415.5625 189.101562 416.902344 C 188.296875 417.132812 187.484375 417.246094 186.683594 417.246094 " fill-opacity="1" fill-rule="nonzero"/><path fill="#ffffff" d="M 723.351562 552.492188 C 723.351562 577.714844 702.90625 598.164062 677.679688 598.164062 C 652.457031 598.164062 632.011719 577.714844 632.011719 552.492188 C 632.011719 527.265625 652.457031 506.816406 677.679688 506.816406 C 702.90625 506.816406 723.351562 527.265625 723.351562 552.492188 " fill-opacity="1" fill-rule="nonzero"/></svg>