<svg xmlns="http://www.w3.org/2000/svg" xmlns:xlink="http://www.w3.org/1999/xlink" width="1080" zoomAndPan="magnify" viewBox="0 0 810 809.999993" height="1080" preserveAspectRatio="xMidYMid meet" version="1.0"><defs><clipPath id="85e7704856"><path d="M 0 43.445312 L 786 43.445312 L 786 766.445312 L 0 766.445312 Z M 0 43.445312 " clip-rule="nonzero"/></clipPath></defs><path fill="#ffffff" d="M 607.921875 341.898438 C 560.96875 323.339844 509.613281 324.207031 463.308594 344.335938 C 416.800781 364.558594 380.960938 401.753906 362.382812 449.085938 C 324.128906 546.605469 372.019531 657.175781 469.132812 695.570312 C 491.625 704.476562 515.136719 708.925781 538.613281 708.925781 C 564.128906 708.925781 589.613281 703.671875 613.71875 693.199219 C 660.238281 672.984375 696.09375 635.761719 714.675781 588.390625 C 752.949219 490.875 705.066406 380.300781 607.921875 341.898438 Z M 703.074219 583.835938 C 685.707031 628.105469 652.210938 662.878906 608.746094 681.769531 C 565.503906 700.558594 517.546875 701.351562 473.714844 683.980469 C 382.96875 648.109375 338.226562 544.773438 373.976562 453.632812 C 391.34375 409.40625 424.832031 374.644531 468.273438 355.761719 C 511.535156 336.960938 559.5 336.15625 603.34375 353.488281 C 694.109375 389.371094 738.851562 492.699219 703.074219 583.835938 Z M 703.074219 583.835938 " fill-opacity="1" fill-rule="nonzero"/><g clip-path="url(#85e7704856)"><path fill="#ffffff" d="M 679.722656 315.859375 L 669.546875 280.882812 L 668.410156 268.167969 C 668.40625 268.0625 668.394531 267.964844 668.378906 267.871094 C 668.378906 267.871094 668.378906 267.863281 668.378906 267.863281 C 668.378906 267.863281 668.378906 267.859375 668.378906 267.859375 C 668.1875 266.425781 667.507812 265.160156 666.53125 264.21875 C 666.269531 263.96875 665.996094 263.746094 665.695312 263.546875 C 665.289062 263.273438 664.847656 263.042969 664.386719 262.875 L 608.925781 240.933594 C 608.316406 240.6875 607.675781 240.570312 607.039062 240.527344 C 606.902344 240.519531 606.765625 240.550781 606.628906 240.550781 C 606.042969 240.550781 605.476562 240.632812 604.914062 240.792969 C 604.695312 240.855469 604.496094 240.933594 604.292969 241.019531 C 603.742188 241.242188 603.230469 241.546875 602.757812 241.929688 C 602.664062 242.003906 602.546875 242.023438 602.460938 242.101562 L 592.777344 250.867188 L 558.820312 275.867188 C 534.960938 273.71875 511.148438 274.976562 487.894531 279.519531 C 468.804688 184.527344 397.359375 109.625 303.773438 87.265625 L 281.574219 58.539062 L 275.875 47.082031 C 275.824219 46.988281 275.773438 46.898438 275.722656 46.804688 C 275.722656 46.789062 275.71875 46.804688 275.722656 46.796875 C 275.039062 45.5625 273.980469 44.652344 272.765625 44.125 C 272.367188 43.949219 271.949219 43.820312 271.519531 43.730469 C 271.074219 43.644531 270.632812 43.613281 270.152344 43.613281 L 210.539062 43.613281 C 209.878906 43.613281 209.234375 43.730469 208.625 43.929688 C 208.5 43.96875 208.402344 44.050781 208.28125 44.09375 C 207.726562 44.3125 207.214844 44.597656 206.75 44.964844 C 206.570312 45.109375 206.414062 45.257812 206.246094 45.421875 C 205.839844 45.8125 205.503906 46.253906 205.214844 46.746094 C 205.148438 46.871094 205.023438 46.945312 204.960938 47.070312 L 199.117188 58.820312 L 176.625 94.609375 C 70.875 125.835938 0 219.339844 0 328.007812 C 0 464.453125 110.578125 575.457031 246.488281 575.457031 C 263.898438 575.457031 281.363281 573.625 297.542969 570.3125 C 314.847656 651.804688 370.695312 718.351562 448.191406 749.019531 C 477.445312 760.582031 508.019531 766.351562 538.550781 766.351562 C 571.816406 766.351562 605.046875 759.5 636.480469 745.835938 C 697.023438 719.511719 743.691406 671.078125 767.878906 609.445312 C 810.042969 501.980469 773.78125 381.597656 679.722656 315.859375 Z M 656.910156 279.464844 L 634.035156 299.855469 L 629.800781 290.054688 L 656.773438 277.957031 Z M 604.261719 287.6875 L 603.0625 258.339844 L 604.003906 257.484375 L 613.742188 283.539062 Z M 269.320312 61.886719 L 256.59375 87.726562 L 249.199219 80.28125 L 268.613281 60.464844 Z M 224.238281 87.738281 L 211.507812 61.886719 L 212.21875 60.453125 L 231.683594 80.277344 Z M 12.460938 328.007812 C 12.460938 224.171875 80.730469 134.917969 182.34375 105.925781 C 183.820312 105.507812 185.089844 104.546875 185.90625 103.253906 L 203.894531 74.632812 L 216.910156 101.066406 C 217.203125 101.664062 217.597656 102.179688 218.039062 102.636719 C 218.066406 102.660156 218.070312 102.699219 218.101562 102.722656 C 218.175781 102.796875 218.277344 102.820312 218.355469 102.890625 C 218.820312 103.308594 219.328125 103.644531 219.890625 103.90625 C 220.070312 103.988281 220.238281 104.074219 220.425781 104.136719 C 221.097656 104.375 221.789062 104.542969 222.511719 104.542969 C 222.527344 104.542969 222.53125 104.535156 222.542969 104.535156 C 223.410156 104.527344 224.257812 104.3125 225.0625 103.949219 C 225.125 103.917969 225.191406 103.9375 225.253906 103.90625 C 225.574219 103.75 225.777344 103.488281 226.058594 103.289062 C 226.339844 103.089844 226.664062 102.972656 226.917969 102.714844 L 240.4375 89.148438 L 253.910156 102.703125 C 255.085938 103.886719 256.683594 104.542969 258.328125 104.542969 C 258.664062 104.542969 259 104.515625 259.335938 104.460938 C 261.324219 104.136719 263.03125 102.871094 263.917969 101.066406 L 277.449219 73.585938 L 295.269531 96.640625 C 296.15625 97.78125 297.402344 98.585938 298.808594 98.902344 C 387.359375 119.207031 457.710938 192.53125 475.730469 282.273438 C 460.871094 285.960938 446.578125 290.9375 433.058594 297.144531 C 417.460938 205.808594 338.691406 137.933594 246.488281 137.933594 C 142.082031 137.933594 57.136719 223.203125 57.136719 328.007812 C 57.136719 432.8125 142.082031 518.078125 246.488281 518.078125 C 262.363281 518.078125 277.660156 516.179688 292.179688 512.636719 C 291.800781 527.75 292.828125 542.957031 295.257812 558.070312 C 279.835938 561.246094 263.15625 562.996094 246.496094 562.996094 C 117.449219 562.996094 12.460938 457.582031 12.460938 328.007812 Z M 292.777344 499.625 C 278.304688 503.496094 262.441406 505.621094 246.488281 505.621094 C 148.953125 505.621094 69.597656 425.941406 69.597656 328.007812 C 69.597656 230.074219 148.953125 150.394531 246.488281 150.394531 C 333.8125 150.394531 408.222656 215.644531 421.3125 302.839844 C 370.28125 329.414062 330.5625 373.695312 309.226562 428.078125 C 300.140625 451.140625 294.648438 475.199219 292.777344 499.625 Z M 756.285156 604.894531 C 733.3125 663.417969 689 709.410156 631.511719 734.410156 C 574.277344 759.292969 510.796875 760.367188 452.769531 737.4375 C 377.324219 707.585938 323.363281 641.949219 308.433594 561.863281 C 304.925781 542.96875 303.726562 523.816406 304.851562 504.921875 C 306.28125 480.234375 311.652344 455.917969 320.820312 432.636719 C 341.59375 379.671875 380.699219 336.773438 430.976562 311.828125 C 447.582031 303.46875 465.5625 297.101562 484.410156 292.90625 C 509.089844 287.445312 534.507812 285.957031 559.960938 288.476562 C 561.484375 288.640625 563.03125 288.210938 564.265625 287.292969 L 590.957031 267.644531 L 592.152344 297.117188 C 592.152344 297.125 592.152344 297.125 592.152344 297.132812 L 592.160156 297.300781 C 592.179688 297.765625 592.359375 298.171875 592.472656 298.601562 C 592.550781 298.914062 592.539062 299.238281 592.675781 299.542969 C 592.683594 299.5625 592.703125 299.574219 592.707031 299.585938 C 593.039062 300.328125 593.503906 300.992188 594.085938 301.546875 C 594.253906 301.710938 594.476562 301.785156 594.664062 301.929688 C 595.105469 302.269531 595.550781 302.613281 596.078125 302.824219 C 596.445312 302.976562 596.851562 302.980469 597.238281 303.054688 C 597.625 303.132812 597.980469 303.28125 598.382812 303.28125 C 598.410156 303.28125 598.433594 303.28125 598.460938 303.28125 C 598.460938 303.28125 598.464844 303.28125 598.464844 303.28125 C 598.519531 303.28125 598.578125 303.28125 598.640625 303.273438 C 599.03125 303.253906 599.367188 303.085938 599.742188 303.007812 C 600.121094 302.917969 600.507812 302.925781 600.882812 302.761719 L 618.390625 295.105469 L 626.003906 312.726562 C 626.796875 314.5625 628.429688 315.910156 630.378906 316.339844 C 630.828125 316.4375 631.277344 316.480469 631.726562 316.480469 C 633.238281 316.480469 634.714844 315.925781 635.875 314.90625 L 660.15625 293.257812 L 668.363281 321.464844 C 668.761719 322.847656 669.632812 324.050781 670.824219 324.859375 C 761.449219 387.007812 796.589844 502.164062 756.285156 604.894531 Z M 756.285156 604.894531 " fill-opacity="1" fill-rule="nonzero"/></g></svg>