<svg xmlns="http://www.w3.org/2000/svg" xmlns:xlink="http://www.w3.org/1999/xlink" width="1080" zoomAndPan="magnify" viewBox="0 0 810 809.999993" height="1080" preserveAspectRatio="xMidYMid meet" version="1.0"><path fill="#ffffff" d="M 348.796875 474.960938 L 532.011719 291.644531 C 532.488281 291.1875 532.980469 290.757812 533.496094 290.351562 C 534.011719 289.945312 534.542969 289.5625 535.09375 289.207031 C 535.644531 288.847656 536.214844 288.519531 536.796875 288.21875 C 537.378906 287.914062 537.972656 287.640625 538.582031 287.394531 C 539.191406 287.148438 539.8125 286.933594 540.441406 286.746094 C 541.070312 286.558594 541.707031 286.402344 542.351562 286.277344 C 542.996094 286.152344 543.644531 286.054688 544.296875 285.992188 C 544.949219 285.925781 545.605469 285.894531 546.261719 285.890625 C 546.917969 285.890625 547.574219 285.917969 548.226562 285.980469 C 548.878906 286.039062 549.53125 286.132812 550.175781 286.253906 C 550.820312 286.375 551.457031 286.527344 552.089844 286.710938 C 552.71875 286.894531 553.339844 287.105469 553.949219 287.347656 C 554.558594 287.589844 555.15625 287.859375 555.742188 288.160156 C 556.324219 288.460938 556.894531 288.785156 557.449219 289.136719 C 558 289.492188 558.535156 289.871094 559.054688 290.273438 C 559.570312 290.679688 560.066406 291.105469 560.542969 291.558594 C 561.011719 292.023438 561.457031 292.511719 561.875 293.023438 C 562.296875 293.53125 562.6875 294.0625 563.054688 294.609375 C 563.425781 295.160156 563.765625 295.722656 564.078125 296.304688 C 564.390625 296.886719 564.671875 297.484375 564.925781 298.09375 C 565.179688 298.703125 565.402344 299.324219 565.597656 299.953125 C 565.789062 300.585938 565.953125 301.226562 566.082031 301.871094 C 566.214844 302.519531 566.3125 303.171875 566.378906 303.828125 C 566.445312 304.488281 566.480469 305.144531 566.480469 305.804688 C 566.484375 306.464844 566.453125 307.125 566.390625 307.78125 C 566.328125 308.441406 566.234375 309.09375 566.105469 309.742188 C 565.980469 310.386719 565.820312 311.027344 565.632812 311.660156 C 565.441406 312.292969 565.222656 312.917969 564.972656 313.527344 C 564.722656 314.136719 564.441406 314.734375 564.132812 315.320312 C 563.824219 315.902344 563.488281 316.46875 563.125 317.019531 C 562.757812 317.570312 562.367188 318.105469 561.953125 318.617188 C 561.535156 319.128906 561.09375 319.621094 560.628906 320.089844 L 360.757812 520.078125 C 359.828125 521.019531 358.808594 521.859375 357.710938 522.601562 C 356.609375 523.34375 355.449219 523.96875 354.226562 524.476562 C 353 524.988281 351.738281 525.371094 350.4375 525.632812 C 349.136719 525.890625 347.824219 526.019531 346.5 526.019531 L 346.433594 526.019531 C 345.117188 526.023438 343.808594 525.898438 342.515625 525.644531 C 341.222656 525.390625 339.964844 525.011719 338.746094 524.507812 C 337.527344 524.003906 336.371094 523.386719 335.273438 522.65625 C 334.175781 521.925781 333.160156 521.09375 332.226562 520.164062 C 331.410156 519.347656 330.667969 518.46875 330.003906 517.523438 L 247.691406 419.734375 C 247.296875 419.199219 246.933594 418.648438 246.59375 418.074219 C 246.257812 417.503906 245.945312 416.917969 245.667969 416.3125 C 245.386719 415.710938 245.136719 415.097656 244.917969 414.46875 C 244.699219 413.84375 244.507812 413.207031 244.351562 412.5625 C 244.195312 411.917969 244.070312 411.265625 243.980469 410.605469 C 243.886719 409.949219 243.828125 409.289062 243.800781 408.625 C 243.773438 407.960938 243.777344 407.296875 243.816406 406.632812 C 243.855469 405.972656 243.925781 405.3125 244.03125 404.65625 C 244.132812 404 244.269531 403.351562 244.4375 402.707031 C 244.605469 402.066406 244.804688 401.433594 245.035156 400.808594 C 245.265625 400.1875 245.527344 399.574219 245.816406 398.980469 C 246.109375 398.382812 246.425781 397.800781 246.773438 397.234375 C 247.125 396.667969 247.5 396.121094 247.902344 395.59375 C 248.304688 395.0625 248.730469 394.554688 249.183594 394.070312 C 249.636719 393.582031 250.109375 393.121094 250.609375 392.679688 C 251.105469 392.242188 251.625 391.828125 252.164062 391.4375 C 252.703125 391.050781 253.261719 390.6875 253.835938 390.355469 C 254.410156 390.023438 255 389.71875 255.605469 389.441406 C 256.207031 389.167969 256.824219 388.921875 257.453125 388.707031 C 258.082031 388.492188 258.722656 388.3125 259.367188 388.160156 C 260.015625 388.007812 260.667969 387.890625 261.328125 387.800781 C 261.984375 387.714844 262.648438 387.660156 263.3125 387.640625 C 263.976562 387.617188 264.636719 387.628906 265.300781 387.671875 C 265.964844 387.71875 266.625 387.792969 267.28125 387.902344 C 267.933594 388.011719 268.582031 388.152344 269.226562 388.324219 C 269.867188 388.5 270.496094 388.703125 271.117188 388.9375 C 271.742188 389.175781 272.347656 389.441406 272.945312 389.734375 C 273.539062 390.03125 274.117188 390.355469 274.679688 390.707031 C 275.246094 391.058594 275.789062 391.4375 276.3125 391.847656 C 276.839844 392.253906 277.34375 392.683594 277.828125 393.140625 C 278.308594 393.597656 278.769531 394.074219 279.203125 394.574219 C 279.640625 395.078125 280.050781 395.597656 280.433594 396.140625 Z M 734.910156 459.851562 C 735.402344 519.929688 700.476562 590.808594 636.5625 659.421875 C 609.019531 688.917969 578.859375 715.429688 546.070312 738.960938 L 544.660156 739.878906 C 544.078125 740.199219 543.535156 740.578125 543.035156 741.011719 L 541.699219 742.078125 C 522.265625 756.097656 501.933594 768.652344 480.699219 779.753906 C 459.464844 790.851562 437.546875 800.378906 414.945312 808.332031 L 409.195312 810.234375 L 403.414062 808.417969 C 389.578125 804.011719 376.015625 798.886719 362.726562 793.042969 C 361.902344 792.617188 361.058594 792.242188 360.191406 791.917969 L 359.058594 791.449219 C 342.269531 783.640625 325.875 775.078125 309.878906 765.757812 C 293.878906 756.4375 278.34375 746.398438 263.273438 735.644531 C 248.203125 724.890625 233.660156 713.464844 219.644531 701.367188 C 205.628906 689.269531 192.203125 676.554688 179.359375 663.21875 C 165.804688 649.414062 153.1875 634.804688 141.503906 619.386719 C 129.820312 603.972656 119.167969 587.871094 109.542969 571.09375 L 108.839844 569.683594 C 108.535156 569.050781 108.179688 568.453125 107.769531 567.886719 L 106.988281 566.582031 C 102.550781 558.890625 98.59375 550.957031 95.113281 542.78125 C 91.632812 534.609375 88.660156 526.257812 86.191406 517.726562 C 83.726562 509.191406 81.78125 500.542969 80.359375 491.777344 C 78.9375 483.007812 78.050781 474.1875 77.699219 465.3125 L 75.335938 176.320312 L 76.746094 175.550781 L 402.449219 0 L 403.699219 0.652344 L 732.503906 170.976562 Z M 695.355469 193.769531 L 402.835938 42.304688 L 112.933594 198.546875 L 115.136719 465.011719 C 115.480469 472.3125 116.257812 479.566406 117.46875 486.773438 C 118.679688 493.980469 120.320312 501.089844 122.382812 508.097656 C 124.445312 515.109375 126.917969 521.972656 129.800781 528.6875 C 132.6875 535.402344 135.960938 541.921875 139.625 548.246094 C 140.738281 549.960938 141.726562 551.742188 142.597656 553.589844 C 160.289062 584.1875 181.523438 612.09375 206.300781 637.304688 C 218.273438 649.742188 230.792969 661.609375 243.859375 672.898438 C 256.921875 684.191406 270.480469 694.855469 284.523438 704.902344 C 298.570312 714.945312 313.050781 724.324219 327.957031 733.039062 C 342.867188 741.75 358.144531 749.761719 373.789062 757.070312 C 375.46875 757.691406 377.101562 758.402344 378.695312 759.210938 C 388.679688 763.484375 399.148438 767.554688 408.855469 770.824219 C 428.511719 763.523438 447.597656 754.941406 466.105469 745.085938 C 484.617188 735.230469 502.386719 724.1875 519.421875 711.957031 C 521.160156 710.515625 523 709.210938 524.9375 708.042969 C 555.429688 686.085938 583.503906 661.375 609.152344 633.914062 C 666.523438 572.320312 697.878906 510.597656 697.472656 460.117188 Z M 695.355469 193.769531 " fill-opacity="1" fill-rule="nonzero"/></svg>