<svg xmlns="http://www.w3.org/2000/svg" xmlns:xlink="http://www.w3.org/1999/xlink" width="1080" zoomAndPan="magnify" viewBox="0 0 810 809.999993" height="1080" preserveAspectRatio="xMidYMid meet" version="1.0"><path fill="#ffffff" d="M 131.914062 607.707031 C 92.957031 607.707031 61.261719 639.386719 61.261719 678.328125 C 61.261719 717.269531 92.957031 748.953125 131.914062 748.953125 C 170.871094 748.953125 202.566406 717.269531 202.566406 678.328125 C 202.566406 639.386719 170.871094 607.707031 131.914062 607.707031 Z M 131.914062 731.355469 C 102.664062 731.355469 78.863281 707.570312 78.863281 678.328125 C 78.863281 649.085938 102.660156 625.300781 131.914062 625.300781 C 161.167969 625.300781 184.964844 649.085938 184.964844 678.328125 C 184.964844 707.570312 161.167969 731.355469 131.914062 731.355469 Z M 131.914062 731.355469 " fill-opacity="1" fill-rule="nonzero"/><path fill="#ffffff" d="M 778.75 625.492188 L 544.847656 391.675781 L 630.59375 296.996094 C 638.800781 298.410156 647.027344 299.152344 655.203125 299.152344 C 692.898438 299.152344 729.363281 284.332031 756.644531 257.058594 C 797.570312 216.152344 809.972656 155.078125 788.25 101.457031 C 788.03125 100.910156 787.753906 100.382812 787.421875 99.878906 C 786.765625 98.882812 785.921875 98.058594 784.964844 97.421875 C 784.730469 97.265625 784.476562 97.15625 784.234375 97.023438 C 783.976562 96.886719 783.734375 96.734375 783.464844 96.621094 C 783.1875 96.507812 782.894531 96.4375 782.605469 96.351562 C 782.351562 96.273438 782.101562 96.175781 781.835938 96.121094 C 781.566406 96.066406 781.292969 96.058594 781.023438 96.03125 C 780.726562 96 780.4375 95.949219 780.136719 95.945312 C 779.847656 95.945312 779.5625 95.992188 779.269531 96.019531 C 778.992188 96.046875 778.71875 96.046875 778.441406 96.097656 C 777.3125 96.3125 776.21875 96.746094 775.226562 97.402344 C 774.722656 97.734375 774.261719 98.113281 773.847656 98.53125 L 671.855469 200.480469 L 609.953125 138.597656 L 711.941406 36.65625 C 712.363281 36.238281 712.738281 35.777344 713.074219 35.277344 C 713.734375 34.28125 714.167969 33.1875 714.378906 32.054688 C 714.429688 31.800781 714.429688 31.542969 714.453125 31.289062 C 714.484375 30.980469 714.535156 30.675781 714.53125 30.363281 C 714.53125 30.074219 714.480469 29.796875 714.449219 29.515625 C 714.421875 29.230469 714.414062 28.945312 714.355469 28.667969 C 714.304688 28.414062 714.210938 28.175781 714.136719 27.929688 C 714.050781 27.628906 713.976562 27.328125 713.855469 27.039062 C 713.753906 26.789062 713.605469 26.558594 713.480469 26.320312 C 713.339844 26.058594 713.222656 25.789062 713.058594 25.539062 C 712.417969 24.582031 711.59375 23.742188 710.601562 23.085938 C 710.101562 22.753906 709.574219 22.480469 709.035156 22.261719 C 655.382812 0.539062 594.285156 12.9375 553.355469 53.84375 C 520.144531 87.039062 505.402344 133.828125 513.371094 179.898438 L 367.164062 312.191406 L 172.914062 118.027344 L 148.4375 54.472656 C 147.617188 52.339844 146 50.613281 143.925781 49.652344 L 69.03125 14.929688 C 65.683594 13.378906 61.714844 14.082031 59.105469 16.691406 L 17.042969 58.734375 C 14.433594 61.347656 13.730469 65.308594 15.285156 68.65625 L 50.019531 143.53125 C 50.980469 145.601562 52.710938 147.21875 54.839844 148.039062 L 118.417969 172.496094 L 309.953125 363.945312 L 51.710938 597.550781 C 51.648438 597.601562 51.609375 597.667969 51.554688 597.722656 C 51.507812 597.765625 51.449219 597.796875 51.40625 597.84375 C 7.015625 642.222656 7.015625 714.429688 51.40625 758.804688 C 73.605469 780.984375 102.757812 792.078125 131.914062 792.078125 C 161.070312 792.078125 190.226562 780.984375 212.421875 758.804688 C 212.46875 758.753906 212.503906 758.695312 212.550781 758.644531 C 212.609375 758.585938 212.679688 758.542969 212.738281 758.480469 L 399.789062 551.871094 L 626.09375 778.082031 C 646.476562 798.457031 673.574219 809.675781 702.398438 809.675781 C 731.234375 809.675781 758.34375 798.449219 778.726562 778.066406 C 799.113281 757.691406 810.347656 730.601562 810.351562 701.78125 C 810.355469 672.960938 799.132812 645.867188 778.75 625.492188 Z M 528.84375 189.632812 C 528.925781 189.554688 528.984375 189.464844 529.066406 189.386719 C 529.242188 189.210938 529.402344 189.019531 529.566406 188.828125 C 529.785156 188.574219 530.003906 188.324219 530.1875 188.050781 C 530.3125 187.871094 530.414062 187.675781 530.523438 187.484375 C 530.699219 187.183594 530.871094 186.882812 531.003906 186.566406 C 531.09375 186.359375 531.160156 186.140625 531.234375 185.921875 C 531.339844 185.609375 531.449219 185.300781 531.515625 184.976562 C 531.570312 184.734375 531.59375 184.484375 531.625 184.234375 C 531.664062 183.921875 531.707031 183.609375 531.714844 183.292969 C 531.71875 183.042969 531.699219 182.792969 531.679688 182.542969 C 531.660156 182.210938 531.632812 181.886719 531.574219 181.558594 C 531.558594 181.472656 531.566406 181.386719 531.546875 181.296875 C 522.796875 139.460938 535.601562 96.464844 565.796875 66.28125 C 598.484375 33.617188 645.828125 21.671875 689.558594 34.148438 L 591.285156 132.375 C 587.847656 135.808594 587.847656 141.378906 591.28125 144.8125 L 665.628906 219.136719 C 667.28125 220.785156 669.519531 221.714844 671.851562 221.714844 C 674.1875 221.714844 676.425781 220.785156 678.074219 219.136719 L 776.351562 120.90625 C 788.828125 164.625 776.882812 211.949219 744.203125 244.617188 C 714.003906 274.804688 670.988281 287.601562 629.140625 278.851562 C 629.046875 278.832031 628.953125 278.839844 628.859375 278.824219 C 628.578125 278.773438 628.296875 278.753906 628.011719 278.734375 C 627.703125 278.710938 627.398438 278.683594 627.097656 278.691406 C 626.867188 278.699219 626.640625 278.730469 626.410156 278.757812 C 626.066406 278.792969 625.726562 278.828125 625.394531 278.902344 C 625.191406 278.949219 624.996094 279.023438 624.792969 279.082031 C 624.453125 279.1875 624.113281 279.292969 623.789062 279.4375 C 623.601562 279.519531 623.425781 279.628906 623.242188 279.722656 C 622.917969 279.894531 622.597656 280.070312 622.296875 280.285156 C 622.140625 280.390625 622.003906 280.515625 621.855469 280.636719 C 621.542969 280.886719 621.242188 281.148438 620.964844 281.441406 C 620.921875 281.488281 620.871094 281.519531 620.828125 281.5625 L 532.386719 379.214844 L 515.089844 361.925781 C 513.441406 360.277344 511.203125 359.351562 508.867188 359.351562 C 506.535156 359.351562 504.296875 360.277344 502.648438 361.925781 L 459.785156 404.769531 L 379.625 324.644531 Z M 129.523438 158.722656 C 129.5 158.699219 129.46875 158.679688 129.441406 158.65625 C 129.304688 158.519531 129.140625 158.414062 128.992188 158.289062 C 128.6875 158.027344 128.386719 157.761719 128.058594 157.550781 C 128.039062 157.539062 128.019531 157.535156 128.003906 157.523438 C 127.515625 157.214844 127.003906 156.953125 126.476562 156.75 C 126.472656 156.75 126.46875 156.746094 126.464844 156.742188 L 64.484375 132.902344 L 33.832031 66.828125 L 67.199219 33.476562 L 133.292969 64.113281 L 157.125 125.992188 C 157.515625 127.039062 158.117188 128.015625 158.921875 128.878906 C 158.960938 128.921875 158.996094 128.976562 159.035156 129.019531 C 159.066406 129.050781 159.089844 129.089844 159.121094 129.121094 L 447.34375 417.210938 L 417.734375 446.804688 Z M 199.921875 746.414062 C 162.390625 783.871094 101.367188 783.851562 63.851562 746.363281 C 26.34375 708.867188 26.324219 647.875 63.789062 610.34375 L 322.414062 376.398438 L 405.292969 459.242188 L 362.429688 502.085938 C 358.992188 505.519531 358.992188 511.089844 362.429688 514.523438 L 387.328125 539.410156 Z M 766.28125 765.625 C 749.21875 782.683594 726.53125 792.082031 702.394531 792.082031 C 678.273438 792.082031 655.59375 782.691406 638.535156 765.644531 L 405.398438 532.601562 C 405.394531 532.59375 405.390625 532.585938 405.382812 532.582031 C 405.382812 532.578125 405.378906 532.578125 405.375 532.574219 L 381.097656 508.308594 L 508.867188 380.589844 L 766.304688 637.929688 C 783.363281 654.980469 792.753906 677.65625 792.75 701.777344 C 792.746094 725.898438 783.347656 748.574219 766.28125 765.625 Z M 766.28125 765.625 " fill-opacity="1" fill-rule="nonzero"/><path fill="#ffffff" d="M 469.660156 498.710938 C 466.226562 495.277344 460.652344 495.277344 457.21875 498.710938 C 453.78125 502.144531 453.78125 507.714844 457.21875 511.148438 L 679.578125 733.417969 C 681.296875 735.136719 683.550781 735.996094 685.800781 735.996094 C 688.050781 735.996094 690.304688 735.136719 692.023438 733.417969 C 695.460938 729.984375 695.460938 724.414062 692.023438 720.980469 Z M 469.660156 498.710938 " fill-opacity="1" fill-rule="nonzero"/><path fill="#ffffff" d="M 511.710938 456.679688 C 508.277344 453.242188 502.703125 453.242188 499.269531 456.679688 C 495.832031 460.113281 495.832031 465.683594 499.269531 469.117188 L 721.640625 691.398438 C 723.359375 693.117188 725.609375 693.972656 727.863281 693.972656 C 730.113281 693.972656 732.367188 693.117188 734.082031 691.398438 C 737.519531 687.960938 737.519531 682.394531 734.082031 678.957031 Z M 511.710938 456.679688 " fill-opacity="1" fill-rule="nonzero"/></svg>