<svg xmlns="http://www.w3.org/2000/svg" xmlns:xlink="http://www.w3.org/1999/xlink" width="1080" zoomAndPan="magnify" viewBox="0 0 810 809.999993" height="1080" preserveAspectRatio="xMidYMid meet" version="1.0"><defs><clipPath id="f29490e634"><path d="M 610 534 L 769 534 L 769 692.699219 L 610 692.699219 Z M 610 534 " clip-rule="nonzero"/></clipPath><clipPath id="2e5b7757ad"><path d="M 86 534 L 245 534 L 245 692.699219 L 86 692.699219 Z M 86 534 " clip-rule="nonzero"/></clipPath></defs><path fill="#ffffff" d="M 144.320312 473.152344 L 287.730469 473.152344 C 292.972656 473.152344 297.1875 468.9375 297.1875 463.695312 L 297.1875 353.402344 C 297.1875 348.164062 292.972656 343.832031 287.730469 343.832031 L 250.027344 343.832031 C 229.523438 343.832031 204.691406 355.453125 183.734375 374.824219 C 166.875 390.433594 144.664062 418.234375 135.09375 461.417969 C 134.753906 464.378906 134.523438 466.660156 136.917969 469.621094 C 138.738281 471.898438 141.472656 473.152344 144.320312 473.152344 Z M 278.277344 454.125 L 156.625 454.125 C 174.394531 395.21875 221.777344 362.859375 250.140625 362.859375 L 278.277344 362.859375 Z M 278.277344 454.125 " fill-opacity="1" fill-rule="evenodd"/><path fill="#ffffff" d="M 9.566406 625.03125 L 96.136719 625.03125 C 101.492188 625.03125 105.707031 620.589844 105.59375 615.234375 C 104.679688 581.28125 131.90625 553.367188 165.621094 553.367188 C 199.453125 553.367188 226.675781 581.28125 225.652344 615.234375 C 225.539062 620.703125 229.867188 625.03125 235.21875 625.03125 L 321.789062 625.03125 C 327.03125 625.03125 331.246094 620.816406 331.246094 615.574219 L 331.246094 320.132812 C 331.246094 314.894531 327.03125 310.5625 321.789062 310.5625 L 268.480469 310.5625 C 193.871094 310.5625 131.5625 359.328125 109.695312 431.335938 C 96.367188 474.863281 0 468.710938 0 544.023438 L 0 615.574219 C 0 620.816406 4.328125 625.03125 9.566406 625.03125 Z M 86.910156 606.003906 L 19.023438 606.003906 L 19.023438 544.023438 C 19.023438 511.550781 43.398438 499.816406 71.648438 486.140625 C 95.339844 474.75 119.945312 462.898438 127.804688 436.921875 C 147.738281 371.75 202.871094 329.589844 268.480469 329.589844 L 312.335938 329.589844 L 312.335938 606.003906 L 244.332031 606.003906 C 240.6875 565.898438 206.742188 534.339844 165.621094 534.339844 C 124.617188 534.339844 90.671875 565.898438 86.910156 606.003906 Z M 86.910156 606.003906 " fill-opacity="1" fill-rule="evenodd"/><path fill="#ffffff" d="M 321.789062 625.03125 L 620.34375 625.03125 C 625.695312 625.03125 630.023438 620.589844 629.796875 615.234375 C 628.886719 581.28125 656.109375 553.367188 689.828125 553.367188 C 723.65625 553.367188 750.882812 581.28125 749.96875 615.234375 C 749.742188 620.703125 754.070312 625.03125 759.425781 625.03125 L 778.21875 625.03125 C 795.761719 625.03125 810 610.789062 810 593.242188 L 810 559.859375 C 810 542.3125 795.761719 528.070312 778.21875 528.070312 L 321.789062 528.070312 C 316.550781 528.070312 312.335938 532.402344 312.335938 537.640625 L 312.335938 615.574219 C 312.335938 620.816406 316.550781 625.03125 321.789062 625.03125 Z M 611.117188 606.003906 L 331.246094 606.003906 L 331.246094 547.097656 L 646.882812 547.097656 C 627.175781 559.972656 613.394531 581.394531 611.117188 606.003906 Z M 778.21875 547.097656 C 785.28125 547.097656 790.976562 552.796875 790.976562 559.859375 L 790.976562 593.242188 C 790.976562 600.308594 785.28125 606.003906 778.21875 606.003906 L 768.652344 606.003906 C 766.257812 581.394531 752.589844 559.972656 732.882812 547.097656 Z M 778.21875 547.097656 " fill-opacity="1" fill-rule="evenodd"/><g clip-path="url(#f29490e634)"><path fill="#ffffff" d="M 689.828125 692.597656 C 733.453125 692.597656 768.992188 657.050781 768.992188 613.410156 C 768.992188 569.886719 733.453125 534.339844 689.828125 534.339844 C 646.3125 534.339844 610.773438 569.886719 610.773438 613.410156 C 610.773438 657.050781 646.3125 692.597656 689.828125 692.597656 Z M 689.828125 553.367188 C 722.972656 553.367188 749.96875 580.367188 749.96875 613.410156 C 749.96875 646.566406 722.972656 673.570312 689.828125 673.570312 C 656.792969 673.570312 629.796875 646.566406 629.796875 613.410156 C 629.796875 580.367188 656.792969 553.367188 689.828125 553.367188 Z M 689.828125 553.367188 " fill-opacity="1" fill-rule="evenodd"/></g><g clip-path="url(#2e5b7757ad)"><path fill="#ffffff" d="M 165.621094 692.597656 C 209.25 692.597656 244.789062 657.050781 244.789062 613.410156 C 244.789062 569.886719 209.25 534.339844 165.621094 534.339844 C 122.109375 534.339844 86.570312 569.886719 86.570312 613.410156 C 86.570312 657.050781 122.109375 692.597656 165.621094 692.597656 Z M 165.621094 553.367188 C 198.769531 553.367188 225.765625 580.367188 225.765625 613.410156 C 225.765625 646.566406 198.769531 673.570312 165.621094 673.570312 C 132.589844 673.570312 105.59375 646.566406 105.59375 613.410156 C 105.59375 580.367188 132.589844 553.367188 165.621094 553.367188 Z M 165.621094 553.367188 " fill-opacity="1" fill-rule="evenodd"/></g><path fill="#ffffff" d="M 321.789062 547.097656 L 480.464844 547.097656 C 485.703125 547.097656 489.917969 542.882812 489.917969 537.640625 L 489.917969 458.226562 C 489.917969 409.234375 450.050781 369.46875 401.070312 369.46875 C 352.203125 369.46875 312.335938 409.234375 312.335938 458.226562 L 312.335938 537.640625 C 312.335938 542.882812 316.550781 547.097656 321.789062 547.097656 Z M 470.894531 528.070312 L 331.246094 528.070312 L 331.246094 458.226562 C 331.246094 419.714844 362.570312 388.382812 401.070312 388.382812 C 439.683594 388.382812 470.894531 419.714844 470.894531 458.226562 Z M 470.894531 528.070312 " fill-opacity="1" fill-rule="evenodd"/><path fill="#ffffff" d="M 480.464844 467.796875 C 483.082031 467.796875 485.589844 466.773438 487.414062 464.722656 L 736.527344 194.6875 C 739.945312 190.929688 739.832031 185.117188 736.300781 181.585938 L 676.042969 121.3125 C 672.511719 117.78125 666.703125 117.550781 662.945312 120.96875 L 383.527344 372.660156 C 376.695312 378.925781 382.046875 390.433594 391.273438 389.179688 C 433.191406 383.140625 470.894531 415.726562 470.894531 458.226562 C 470.894531 463.582031 475.222656 467.796875 480.464844 467.796875 Z M 716.367188 188.535156 L 487.296875 436.921875 C 478.753906 402.398438 450.050781 375.851562 414.398438 370.496094 L 668.980469 141.136719 Z M 716.367188 188.535156 " fill-opacity="1" fill-rule="evenodd"/><path fill="#ffffff" d="M 729.582031 331.1875 C 734.820312 331.1875 739.035156 326.855469 739.035156 321.617188 L 739.035156 188.308594 C 739.035156 183.066406 734.820312 178.738281 729.582031 178.738281 C 724.339844 178.738281 720.011719 183.066406 720.011719 188.308594 L 720.011719 321.617188 C 720.011719 326.855469 724.339844 331.1875 729.582031 331.1875 Z M 729.582031 331.1875 " fill-opacity="1" fill-rule="evenodd"/><path fill="#ffffff" d="M 729.582031 430.769531 C 752.363281 430.769531 772.867188 418.007812 782.890625 397.5 C 785.167969 392.710938 783.230469 387.015625 778.5625 384.738281 C 773.777344 382.457031 768.082031 384.394531 765.804688 389.179688 C 758.96875 403.082031 745.074219 411.855469 729.582031 411.855469 C 707.253906 411.855469 689.257812 393.738281 689.257812 371.519531 C 689.257812 349.1875 707.367188 331.1875 729.582031 331.1875 C 734.820312 331.1875 739.035156 326.855469 739.035156 321.617188 C 739.035156 316.375 734.820312 312.160156 729.582031 312.160156 C 696.890625 312.160156 670.234375 338.707031 670.234375 371.519531 C 670.234375 404.21875 696.890625 430.769531 729.582031 430.769531 Z M 729.582031 430.769531 " fill-opacity="1" fill-rule="evenodd"/><path fill="#ffffff" d="M 401.070312 514.96875 C 432.394531 514.96875 457.796875 489.558594 457.796875 458.226562 C 457.796875 427.007812 432.394531 401.484375 401.070312 401.484375 C 369.859375 401.484375 344.34375 427.007812 344.34375 458.226562 C 344.34375 489.558594 369.859375 514.96875 401.070312 514.96875 Z M 401.070312 420.511719 C 421.914062 420.511719 438.886719 437.492188 438.886719 458.226562 C 438.886719 479.078125 421.914062 496.054688 401.070312 496.054688 C 380.339844 496.054688 363.367188 479.078125 363.367188 458.226562 C 363.367188 437.492188 380.339844 420.511719 401.070312 420.511719 Z M 401.070312 420.511719 " fill-opacity="1" fill-rule="evenodd"/><path fill="#ffffff" d="M 268.140625 508.816406 L 280.441406 508.816406 C 285.679688 508.816406 290.011719 504.484375 290.011719 499.246094 C 290.011719 494.003906 285.679688 489.789062 280.441406 489.789062 L 268.140625 489.789062 C 262.898438 489.789062 258.683594 494.003906 258.683594 499.246094 C 258.683594 504.484375 262.898438 508.816406 268.140625 508.816406 Z M 268.140625 508.816406 " fill-opacity="1" fill-rule="evenodd"/><path fill="#ffffff" d="M 9.566406 553.480469 L 34.171875 553.480469 C 39.414062 553.480469 43.625 549.265625 43.625 544.023438 C 43.625 538.78125 39.414062 534.453125 34.171875 534.453125 L 9.566406 534.453125 C 4.328125 534.453125 0 538.78125 0 544.023438 C 0 549.265625 4.328125 553.480469 9.566406 553.480469 Z M 9.566406 553.480469 " fill-opacity="1" fill-rule="evenodd"/></svg>