<svg xmlns="http://www.w3.org/2000/svg" xmlns:xlink="http://www.w3.org/1999/xlink" width="1080" zoomAndPan="magnify" viewBox="0 0 810 809.999993" height="1080" preserveAspectRatio="xMidYMid meet" version="1.0"><path fill="#ffffff" d="M 119.214844 119.214844 C 1.265625 237.132812 1.265625 428.640625 119.214844 546.558594 C 237.132812 664.503906 428.640625 664.503906 546.558594 546.558594 C 664.503906 428.640625 664.503906 237.132812 546.558594 119.214844 C 428.640625 1.265625 237.132812 1.265625 119.214844 119.214844 Z M 138.058594 138.058594 C 245.589844 30.527344 420.179688 30.527344 527.710938 138.058594 C 635.242188 245.589844 635.242188 420.179688 527.710938 527.710938 C 420.179688 635.242188 245.589844 635.242188 138.058594 527.710938 C 30.527344 420.179688 30.527344 245.589844 138.058594 138.058594 Z M 138.058594 138.058594 " fill-opacity="1" fill-rule="evenodd"/><path fill="#ffffff" d="M 179.054688 179.054688 C 94.167969 263.964844 94.167969 401.804688 179.054688 486.714844 C 263.964844 571.601562 401.804688 571.601562 486.714844 486.714844 C 571.601562 401.804688 571.601562 263.964844 486.714844 179.054688 C 401.804688 94.167969 263.964844 94.167969 179.054688 179.054688 Z M 197.898438 197.898438 C 272.398438 123.402344 393.375 123.402344 467.871094 197.898438 C 542.371094 272.398438 542.371094 393.375 467.871094 467.871094 C 393.375 542.371094 272.398438 542.371094 197.898438 467.871094 C 123.402344 393.375 123.402344 272.398438 197.898438 197.898438 Z M 197.898438 197.898438 " fill-opacity="1" fill-rule="evenodd"/><path fill="#ffffff" d="M 481.675781 584.082031 C 481.675781 584.082031 612.984375 714.921875 682.082031 783.714844 C 710.15625 811.707031 755.558594 811.652344 783.578125 783.632812 C 783.605469 783.605469 783.605469 783.605469 783.632812 783.578125 C 811.652344 755.558594 811.707031 710.15625 783.742188 682.082031 C 715.5 613.5625 586.480469 484.070312 586.480469 484.070312 C 581.269531 478.863281 572.839844 478.835938 567.632812 484.042969 C 562.425781 489.222656 562.398438 497.683594 567.578125 502.890625 C 567.578125 502.890625 696.601562 632.378906 764.84375 700.898438 C 782.449219 718.53125 782.421875 747.101562 764.789062 764.734375 C 764.761719 764.761719 764.761719 764.761719 764.734375 764.789062 C 747.101562 782.421875 718.53125 782.449219 700.898438 764.84375 C 631.800781 696.023438 500.492188 565.183594 500.492188 565.183594 C 495.285156 560.003906 486.828125 560.03125 481.648438 565.238281 C 476.441406 570.445312 476.46875 578.875 481.675781 584.082031 Z M 481.675781 584.082031 " fill-opacity="1" fill-rule="evenodd"/></svg>